<?xml version="1.0" encoding="iso-8859-1"?>
<!-- Generator: Adobe Illustrator 19.0.0, SVG Export Plug-In . SVG Version: 6.00 Build 0)  -->
<svg version="1.1" id="Capa_1" xmlns="http://www.w3.org/2000/svg" xmlns:xlink="http://www.w3.org/1999/xlink" x="0px" y="0px"
	 viewBox="0 0 511.934 511.934" style="enable-background:new 0 0 511.934 511.934;" xml:space="preserve">
<g>
	<g>
		<path d="M290.79,9.171c-1.562-1.562-4.093-1.562-5.655,0l-22.81,22.825H154.12L139.309,9.78c-1.234-1.843-3.726-2.327-5.546-1.109
			c-1.836,1.226-2.336,3.71-1.109,5.546l15.997,23.997c0.743,1.109,1.993,1.781,3.328,1.781h112.002
			c1.061,0,2.077-0.422,2.828-1.171l23.981-23.997C292.352,13.264,292.352,10.733,290.79,9.171z"/>
	</g>
</g>
<g>
	<g>
		<path d="M127.983,23.996H39.994c-2.211,0-4,1.789-4,4s1.79,4,4,4h87.989c2.21,0,3.999-1.789,3.999-4
			S130.193,23.996,127.983,23.996z"/>
	</g>
</g>
<g>
	<g>
		<path d="M383.949,23.996h-95.987c-2.211,0-4,1.789-4,4s1.789,4,4,4h95.987c2.21,0,3.999-1.789,3.999-4
			S386.159,23.996,383.949,23.996z"/>
	</g>
</g>
<g>
	<g>
		<path d="M239.968,15.998h-63.992c-2.21,0-3.999,1.789-3.999,3.999c0,2.211,1.789,4,3.999,4h63.992c2.21,0,3.999-1.789,3.999-4
			C243.967,17.787,242.178,15.998,239.968,15.998z"/>
	</g>
</g>
<g>
	<g>
		<path d="M367.951,431.944h-31.996c-2.21,0-3.999,1.789-3.999,4s1.789,3.999,3.999,3.999h31.996c2.21,0,3.999-1.788,3.999-3.999
			S370.161,431.944,367.951,431.944z"/>
	</g>
</g>
<g>
	<g>
		<path d="M335.955,431.944c-2.21,0-3.999,1.789-3.999,4v31.996c0,2.21,1.789,3.999,3.999,3.999c2.211,0,3.999-1.789,3.999-3.999
			v-31.996C339.954,433.733,338.166,431.944,335.955,431.944z"/>
	</g>
</g>
<g>
	<g>
		<path d="M39.994,23.996c-2.211,0-4,1.789-4,4v455.942c0,2.21,1.79,3.999,4,3.999c2.21,0,3.999-1.789,4-4V27.996
			C43.994,25.785,42.205,23.996,39.994,23.996z"/>
	</g>
</g>
<g>
	<g>
		<path d="M383.949,23.996c-2.211,0-4,1.789-4,4v415.947c0,2.21,1.789,3.999,4,3.999c2.21,0,3.999-1.789,3.999-4V27.996
			C387.948,25.785,386.159,23.996,383.949,23.996z"/>
	</g>
</g>
<g>
	<g>
		<path d="M386.776,441.115c-1.562-1.562-4.093-1.562-5.655,0l-39.995,39.995c-1.562,1.562-1.562,4.093,0,5.655
			c0.781,0.781,1.805,1.172,2.828,1.172c1.024,0,2.047-0.391,2.828-1.172l39.994-39.995
			C388.338,445.208,388.338,442.677,386.776,441.115z"/>
	</g>
</g>
<g>
	<g>
		<path d="M343.954,479.938H39.994c-2.211,0-4,1.789-4,4c0,2.21,1.79,3.999,4,3.999h303.96c2.211,0,4-1.789,4-3.999
			C347.954,481.727,346.165,479.938,343.954,479.938z"/>
	</g>
</g>
<g>
	<g>
		<path d="M407.946,0c-2.211,0-4,1.789-4,3.999v503.935c0,2.211,1.789,4,4,4c2.21,0,4-1.789,3.999-4V3.999
			C411.945,1.789,410.156,0,407.946,0z"/>
	</g>
</g>
<g>
	<g>
		<path d="M407.946,503.935H15.997c-2.211,0-4,1.788-4,3.999s1.789,4,4,4h391.949c2.21,0,3.999-1.789,3.999-4
			S410.156,503.935,407.946,503.935z"/>
	</g>
</g>
<g>
	<g>
		<path d="M15.997,0c-2.211,0-4,1.789-4,3.999v503.935c0,2.211,1.789,4,4,4c2.21,0,3.999-1.789,3.999-4V3.999
			C19.996,1.789,18.207,0,15.997,0z"/>
	</g>
</g>
<g>
	<g>
		<path d="M407.946,0H15.997c-2.211,0-4,1.789-4,3.999c0,2.211,1.789,4,4,4h391.949c2.21,0,4-1.789,3.999-4
			C411.945,1.789,410.156,0,407.946,0z"/>
	</g>
</g>
<g>
	<g>
		<path d="M475.265,449.731l-14.912-22.372l7.383-22.138c0.133-0.407,0.203-0.836,0.203-1.266v-7.999c0-2.21-1.789-3.999-4-3.999
			s-3.999,1.789-3.999,3.999v7.351l-7.796,23.38c-0.39,1.171-0.219,2.461,0.469,3.483l15.998,23.998
			c0.773,1.155,2.038,1.78,3.327,1.78c0.765,0,1.539-0.218,2.219-0.671C475.992,454.051,476.492,451.567,475.265,449.731z"/>
	</g>
</g>
<g>
	<g>
		<path d="M491.732,426.686l-7.795-23.38v-7.351c0-2.21-1.789-3.999-4-3.999s-4,1.789-4,3.999v7.999c0,0.43,0.07,0.86,0.203,1.266
			l7.383,22.138l-14.912,22.372c-1.227,1.836-0.727,4.32,1.108,5.546c0.68,0.453,1.453,0.672,2.219,0.672
			c1.289,0,2.554-0.625,3.327-1.781l15.998-23.998C491.951,429.147,492.123,427.858,491.732,426.686z"/>
	</g>
</g>
<g>
	<g>
		<path d="M487.936,327.965H455.94c-2.21,0-3.999,1.789-3.999,4c0,2.21,1.789,3.999,3.999,3.999h31.996
			c2.211,0,3.999-1.789,3.999-3.999C491.935,329.754,490.147,327.965,487.936,327.965z"/>
	</g>
</g>
<g>
	<g>
		<path d="M451.941,131.827c-0.086-2.211-1.836-3.687-4.156-3.843c-2.211,0.093-3.929,1.952-3.843,4.155l7.999,199.982
			c0.086,2.155,1.859,3.843,3.999,3.843c0.054,0,0.109,0,0.156,0c2.211-0.093,3.93-1.952,3.844-4.155L451.941,131.827z"/>
	</g>
</g>
<g>
	<g>
		<path d="M496.091,127.984c-2.07,0.18-4.062,1.633-4.156,3.843l-7.998,199.982c-0.086,2.203,1.632,4.061,3.843,4.155
			c0.054,0,0.101,0,0.156,0c2.14,0,3.913-1.687,3.999-3.843l7.999-199.982C500.02,129.937,498.302,128.078,496.091,127.984z"/>
	</g>
</g>
<g>
	<g>
		<path d="M471.938,95.988c-17.794,0-27.996,13.123-27.996,35.995c0,2.211,1.788,4,3.999,4s4-1.789,4-4
			c0-18.575,6.726-27.996,19.997-27.996s19.997,9.421,19.997,27.996c0,2.211,1.789,4,4,4s3.999-1.789,3.999-4
			C499.934,109.111,489.733,95.988,471.938,95.988z"/>
	</g>
</g>
<g>
	<g>
		<path d="M479.937,95.987h-15.998c-2.211,0-3.999,1.789-3.999,4s1.788,4,3.999,4h15.998c2.211,0,4-1.789,4-4
			S482.148,95.987,479.937,95.987z"/>
	</g>
</g>
<g>
	<g>
		<path d="M471.938,111.986c-2.211,0-3.999,1.789-3.999,3.999v119.984c0,2.211,1.788,4,3.999,4s3.999-1.789,3.999-3.999V115.985
			C475.937,113.775,474.149,111.986,471.938,111.986z"/>
	</g>
</g>
<g>
	<g>
		<path d="M487.936,343.963H455.94c-2.21,0-3.999,1.789-3.999,4c0,2.21,1.789,3.999,3.999,3.999h31.996
			c2.211,0,3.999-1.789,3.999-3.999C491.935,345.752,490.147,343.963,487.936,343.963z"/>
	</g>
</g>
<g>
	<g>
		<path d="M487.936,327.965c-2.211,0-3.999,1.789-3.999,4v15.998c0,2.21,1.788,3.999,3.999,3.999s3.999-1.789,3.999-3.999v-15.998
			C491.935,329.754,490.147,327.965,487.936,327.965z"/>
	</g>
</g>
<g>
	<g>
		<path d="M455.94,327.965c-2.21,0-3.999,1.789-3.999,4v15.998c0,2.21,1.789,3.999,3.999,3.999c2.211,0,4-1.789,4-3.999v-15.998
			C459.94,329.754,458.151,327.965,455.94,327.965z"/>
	</g>
</g>
<g>
	<g>
		<path d="M487.936,391.957H455.94c-2.21,0-3.999,1.789-3.999,3.999c0,2.211,1.789,3.999,3.999,3.999h31.996
			c2.211,0,3.999-1.788,3.999-3.999C491.935,393.746,490.147,391.957,487.936,391.957z"/>
	</g>
</g>
<g>
	<g>
		<path d="M487.936,343.963c-2.211,0-3.999,1.789-3.999,4v47.993c0,2.211,1.788,3.999,3.999,3.999s3.999-1.788,3.999-3.999v-47.993
			C491.935,345.752,490.147,343.963,487.936,343.963z"/>
	</g>
</g>
<g>
	<g>
		<path d="M455.94,343.963c-2.21,0-3.999,1.789-3.999,4v47.993c0,2.211,1.789,3.999,3.999,3.999c2.211,0,4-1.788,4-3.999v-47.993
			C459.94,345.752,458.151,343.963,455.94,343.963z"/>
	</g>
</g>
<g>
	<g>
		<path d="M106.814,153.152l-15.998-15.998c-1.563-1.562-4.094-1.562-5.656,0s-1.562,4.094,0,5.656l15.998,15.998
			c0.781,0.78,1.805,1.171,2.828,1.171s2.046-0.39,2.828-1.171C108.376,157.245,108.376,154.714,106.814,153.152z"/>
	</g>
</g>
<g>
	<g>
		<path d="M138.809,121.156c-1.562-1.562-4.093-1.562-5.655,0l-31.996,31.996c-1.562,1.562-1.562,4.094,0,5.656
			c0.781,0.78,1.805,1.171,2.828,1.171s2.046-0.39,2.827-1.172l31.996-31.996C140.371,125.249,140.371,122.718,138.809,121.156z"/>
	</g>
</g>
<g>
	<g>
		<path d="M335.955,111.986H175.976c-2.21,0-3.999,1.789-3.999,3.999c0,2.211,1.789,4,3.999,4h159.979c2.211,0,3.999-1.789,3.999-4
			C339.954,113.775,338.166,111.986,335.955,111.986z"/>
	</g>
</g>
<g>
	<g>
		<path d="M335.955,135.983H175.976c-2.21,0-3.999,1.789-3.999,3.999c0,2.211,1.789,4,3.999,4h159.979c2.211,0,3.999-1.789,3.999-4
			C339.954,137.772,338.166,135.983,335.955,135.983z"/>
	</g>
</g>
<g>
	<g>
		<path d="M255.966,159.978h-79.99c-2.21,0-3.999,1.789-3.999,4s1.789,4,3.999,4h79.99c2.211,0,3.999-1.789,3.999-4
			S258.177,159.978,255.966,159.978z"/>
	</g>
</g>
<g>
	<g>
		<path d="M130.81,233.142c-1.562-1.562-4.093-1.562-5.655,0L85.16,273.137c-1.562,1.561-1.562,4.093,0,5.655
			c0.781,0.78,1.805,1.171,2.828,1.171s2.046-0.391,2.828-1.171l39.994-39.995C132.372,237.235,132.372,234.704,130.81,233.142z"/>
	</g>
</g>
<g>
	<g>
		<path d="M130.81,273.137l-39.994-39.995c-1.563-1.562-4.094-1.562-5.656,0s-1.562,4.093,0,5.655l39.995,39.995
			c0.781,0.78,1.805,1.171,2.828,1.171c1.023,0,2.046-0.391,2.827-1.171C132.372,277.23,132.372,274.699,130.81,273.137z"/>
	</g>
</g>
<g>
	<g>
		<path d="M335.955,223.97H175.976c-2.21,0-3.999,1.789-3.999,4s1.789,4,3.999,4h159.979c2.211,0,3.999-1.789,3.999-4
			S338.166,223.97,335.955,223.97z"/>
	</g>
</g>
<g>
	<g>
		<path d="M335.955,247.968H175.976c-2.21,0-3.999,1.789-3.999,3.999c0,2.211,1.789,4,3.999,4h159.979c2.211,0,3.999-1.789,3.999-4
			C339.954,249.757,338.166,247.968,335.955,247.968z"/>
	</g>
</g>
<g>
	<g>
		<path d="M255.966,271.965h-79.99c-2.21,0-3.999,1.789-3.999,3.999c0,2.211,1.789,3.999,3.999,3.999h79.99
			c2.211,0,3.999-1.788,3.999-3.999C259.965,273.754,258.177,271.965,255.966,271.965z"/>
	</g>
</g>
<g>
	<g>
		<path d="M106.814,377.123l-15.998-15.998c-1.563-1.562-4.094-1.562-5.656,0s-1.562,4.093,0,5.655l15.998,15.998
			c0.781,0.781,1.805,1.172,2.828,1.172s2.046-0.39,2.828-1.172C108.376,381.216,108.376,378.685,106.814,377.123z"/>
	</g>
</g>
<g>
	<g>
		<path d="M138.809,345.127c-1.562-1.562-4.093-1.562-5.655,0l-31.996,31.996c-1.562,1.562-1.562,4.093,0,5.655
			c0.781,0.781,1.805,1.172,2.828,1.172s2.046-0.39,2.827-1.172l31.996-31.996C140.371,349.22,140.371,346.689,138.809,345.127z"/>
	</g>
</g>
<g>
	<g>
		<path d="M335.955,335.956H175.976c-2.21,0-3.999,1.789-3.999,3.999c0,2.211,1.789,4,3.999,4h159.979c2.211,0,3.999-1.789,3.999-4
			C339.954,337.745,338.166,335.956,335.955,335.956z"/>
	</g>
</g>
<g>
	<g>
		<path d="M335.955,359.953H175.976c-2.21,0-3.999,1.789-3.999,4c0,2.21,1.789,3.999,3.999,3.999h159.979
			c2.211,0,3.999-1.789,3.999-3.999C339.954,361.742,338.166,359.953,335.955,359.953z"/>
	</g>
</g>
<g>
	<g>
		<path d="M255.966,383.95h-79.99c-2.21,0-3.999,1.788-3.999,3.999s1.789,4,3.999,4h79.99c2.211,0,3.999-1.789,3.999-4
			S258.177,383.95,255.966,383.95z"/>
	</g>
</g>
<g>
</g>
<g>
</g>
<g>
</g>
<g>
</g>
<g>
</g>
<g>
</g>
<g>
</g>
<g>
</g>
<g>
</g>
<g>
</g>
<g>
</g>
<g>
</g>
<g>
</g>
<g>
</g>
<g>
</g>
</svg>
